<svg xmlns="http://www.w3.org/2000/svg" xmlns:xlink="http://www.w3.org/1999/xlink" viewBox="0 0 1080 1080"><defs><style>.cls-1,.cls-10{fill:#ff8d76;}.cls-2{fill:#e1ecff;}.cls-3{isolation:isolate;}.cls-4{fill:#fec272;}.cls-5,.cls-6,.cls-7{fill:#99adf9;}.cls-5{opacity:0.44;}.cls-7{opacity:0.64;}.cls-10,.cls-7{mix-blend-mode:multiply;}.cls-8{fill:none;stroke:#fec272;stroke-miterlimit:10;stroke-width:13px;}.cls-9{clip-path:url(#clip-path);}.cls-10{opacity:0.43;}.cls-11{fill:#ff97c9;}.cls-12{clip-path:url(#clip-path-2);}.cls-13{fill:#fea691;}.cls-14{fill:#fff;}.cls-15{fill:#738de0;}.cls-16{fill:#c7dcf9;}</style><clipPath id="clip-path"><circle class="cls-1" cx="892.53" cy="625.84" r="54.31"/></clipPath><clipPath id="clip-path-2"><path class="cls-2" d="M778.1,241.65c-26.79-21.52-229.52,6.35-250.24,29.48-80.21,89.52-172.92,234.18-202.48,281.36a20.38,20.38,0,0,0,4.52,26.72L545.23,752.14a20.38,20.38,0,0,0,27.09-1.37c39.86-39.29,162-162,231-258.41C819.5,469.82,804.9,263.17,778.1,241.65Z"/></clipPath></defs><g class="cls-3"><g id="Layer_2" data-name="Layer 2"><path class="cls-4" d="M132.85,553.16l8.43,1.54a3.19,3.19,0,0,0,2.84-.89l6-6.07a3.2,3.2,0,0,1,5.44,1.84l1.14,8.49a3.22,3.22,0,0,0,1.73,2.43l7.64,3.87a3.21,3.21,0,0,1-.07,5.75l-7.72,3.71a3.21,3.21,0,0,0-1.78,2.39l-1.32,8.46a3.21,3.21,0,0,1-5.49,1.72l-5.91-6.2a3.19,3.19,0,0,0-2.82-1l-8.46,1.35a3.2,3.2,0,0,1-3.33-4.68l4.07-7.54a3.2,3.2,0,0,0,0-3l-3.9-7.62A3.21,3.21,0,0,1,132.85,553.16Z"/><path class="cls-4" d="M766.3,798.69l7.58-4a3.22,3.22,0,0,0,1.69-2.46l1-8.5a3.21,3.21,0,0,1,5.42-1.92l6.14,6a3.19,3.19,0,0,0,2.85.85L799.4,787a3.21,3.21,0,0,1,3.49,4.57l-3.79,7.68a3.21,3.21,0,0,0,.08,3l4.18,7.47a3.21,3.21,0,0,1-3.26,4.74l-8.48-1.23a3.22,3.22,0,0,0-2.81,1L783,820.47a3.21,3.21,0,0,1-5.51-1.64L776,810.39a3.19,3.19,0,0,0-1.81-2.37l-7.77-3.59A3.2,3.2,0,0,1,766.3,798.69Z"/><path class="cls-5" d="M171.29,330.5c-7.77,2.05-22.19,14.35-16.91,23.18s23.32-1.13,27.18-11S176.47,329.14,171.29,330.5Z"/><path class="cls-5" d="M950.25,741.86c-7.76,2-22.19,14.34-16.91,23.17s23.33-1.13,27.19-11S955.43,740.5,950.25,741.86Z"/><path class="cls-6" d="M255.05,317.52c-25.17-4.83-23.34-48.68-3.47-72.4S302,228,317.07,225.57c31.42-5.09,48.41,8.43,46.47,26.69S288.34,323.92,255.05,317.52Z"/><path class="cls-7" d="M308.69,226.2c-5,10.22,4.11,14.74,13.52,17.26s19-6,17.64-18.11C325.36,221.76,308.69,226.2,308.69,226.2Z"/><path class="cls-7" d="M258.29,268.75c-4.07,6.95,1.34,19.09,12.25,20.17s22.8-3.48,24.42-9.95-8.89-15.54-18.66-17.27S262.19,262.07,258.29,268.75Z"/><path class="cls-8" d="M893.44,553.69c9,0,16.29,33,16.29,73.76,0,39-6.68,70.91-15.14,73.58"/><circle class="cls-1" cx="892.53" cy="625.84" r="54.31"/><g class="cls-9"><ellipse class="cls-10" cx="932.2" cy="625.84" rx="16.14" ry="54.31"/></g><path class="cls-8" d="M894.59,701a3.85,3.85,0,0,1-1.15.19c-9,0-16.3-33-16.3-73.77s7.3-73.76,16.3-73.76"/><path class="cls-11" d="M428.05,401.93s-92.55-5.6-186.9,84.6a8.84,8.84,0,0,0,3.2,14.7c59.69,21.28,111.47,58,111.47,58Z"/><path class="cls-11" d="M697.16,618.05s25.45,89.16-42.26,200.75a8.84,8.84,0,0,1-15,.05c-33.67-53.68-80.72-96.32-80.72-96.32Z"/><path class="cls-2" d="M778.1,241.65c-26.79-21.52-229.52,6.35-250.24,29.48-80.21,89.52-172.92,234.18-202.48,281.36a20.38,20.38,0,0,0,4.52,26.72L545.23,752.14a20.38,20.38,0,0,0,27.09-1.37c39.86-39.29,162-162,231-258.41C819.5,469.82,804.9,263.17,778.1,241.65Z"/><g class="cls-12"><path class="cls-13" d="M1074.32,533.59c-16.47,20.51-173.57-78.31-350.9-220.71S415.69,38.4,432.17,17.88s338.18-126.65,515.5,15.76S1090.8,513.08,1074.32,533.59Z"/></g><circle class="cls-14" cx="604.25" cy="458.13" r="83.51"/><circle class="cls-15" cx="604.25" cy="458.13" r="57.58"/><path class="cls-16" d="M329.32,660.64H517.13a0,0,0,0,1,0,0v36.22a9.6,9.6,0,0,1-9.6,9.6H338.92a9.6,9.6,0,0,1-9.6-9.6V660.64A0,0,0,0,1,329.32,660.64Z" transform="translate(521.25 -114.42) rotate(38.77)"/><path class="cls-1" d="M367.5,668.18s-48.56,5.16-87.12,44.51c-9.92,10.12-.91,26.92,13,24.33,16.68-3.09,27-3,27-3s-62.23,52.2-77.23,145a14.44,14.44,0,0,0,20.86,15.09c31.44-16,70.45-25.27,98.59-45.4q-1.89,6.09-3.82,11.47c-4.81,13.51,10.84,25,22.29,16.41,30.07-22.67,67.2-64.72,75.22-137.08Z"/><path class="cls-4" d="M432.74,720.57,412.05,704,402.18,696l-10.81-8.68a52.5,52.5,0,0,0-36.83,7.1,4.4,4.4,0,0,0,1.85,8.12c10.88,1.07,20.77,5.08,26.29,7.71A215.72,215.72,0,0,0,323,792a2.1,2.1,0,0,0,2.83,2.7c38.15-18,56.59-12.25,75.33-29.12a112.59,112.59,0,0,1-4.92,20.71,4.23,4.23,0,0,0,6.94,4.43C414.88,779.4,430.26,757.63,432.74,720.57Z"/></g></g></svg>